# xmcd CD database file generated by Grip 2.96
# 
# Track frame offsets:
#       150
#       13790
#       28451
#       42461
#       56941
#       70298
#       83330
#       96991
#       110872
#       124403
#       138363
#       151322
#       165354
#       179864
#       193377
#       206813
#       220256
#       233177
#       245564
#       258954
#       273436
#       288568
#       301360
#       316471
# 
# Disc length: 4405 seconds
# 
# Revision: 0
# Processed by: cddbd v1.4PL0 Copyright (c) Steve Scherf et al.
# Submitted via: Grip 2.96
# 
DISCID=7e113318
DTITLE=Mamie Smith - Mamie Smith - vol 3
DYEAR=1900
DGENRE=
TTITLE0=New Orleans
TTITLE1=Mamie Smith Blues
TTITLE2=Alabama Blues
TTITLE3=Stuttering
TTITLE4=Those Longing For You Blues
TTITLE5=Got To Cool My Doggies Now
TTITLE6=You Can Have Him, I Don't Want Him, Didn't Love Him Anyhow Blues
TTITLE7=Strut Your Material
TTITLE8=Wish That I Could But I Can't Forgive You
TTITLE9=Sighin' Around With The Blues
TTITLE10=That Da Da Strain
TTITLE11=I Ain't Gonna Give Nobody None O' This Jelly Roll
TTITLE12=Don't Mess With Me
TTITLE13=Mean Man
TTITLE14=Darktown Flappers Ball
TTITLE15=I'm Gonna Get You
TTITLE16=You've Got To See Mama Ev'ry Night
TTITLE17=You Can't Do What My Last Man Did
TTITLE18=Good Looking Papa
TTITLE19=Lady Luck Blues
TTITLE20=Kansas City Man Blues
TTITLE21=Plain Old Blues
TTITLE22=Mistreatin' Daddy Blues
TTITLE23=Do It, Mr. So-and-so
EXTD=
EXTT0=
EXTT1=
EXTT2=
EXTT3=
EXTT4=
EXTT5=
EXTT6=
EXTT7=
EXTT8=
EXTT9=
EXTT10=
EXTT11=
EXTT12=
EXTT13=
EXTT14=
EXTT15=
EXTT16=
EXTT17=
EXTT18=
EXTT19=
EXTT20=
EXTT21=
EXTT22=
EXTT23=
PLAYORDER=
